<svg xmlns="http://www.w3.org/2000/svg" width="264" height="264" viewBox="0 0 264 264">
  <rect width="100%" height="100%" fill="#fff"/>
  <rect x="16" y="16" width="8" height="8" fill="#111"/><rect x="24" y="16" width="8" height="8" fill="#111"/><rect x="32" y="16" width="8" height="8" fill="#111"/><rect x="40" y="16" width="8" height="8" fill="#111"/><rect x="48" y="16" width="8" height="8" fill="#111"/><rect x="56" y="16" width="8" height="8" fill="#111"/><rect x="64" y="16" width="8" height="8" fill="#111"/><rect x="104" y="16" width="8" height="8" fill="#111"/><rect x="120" y="16" width="8" height="8" fill="#111"/><rect x="144" y="16" width="8" height="8" fill="#111"/><rect x="160" y="16" width="8" height="8" fill="#111"/><rect x="168" y="16" width="8" height="8" fill="#111"/><rect x="192" y="16" width="8" height="8" fill="#111"/><rect x="200" y="16" width="8" height="8" fill="#111"/><rect x="208" y="16" width="8" height="8" fill="#111"/><rect x="216" y="16" width="8" height="8" fill="#111"/><rect x="224" y="16" width="8" height="8" fill="#111"/><rect x="232" y="16" width="8" height="8" fill="#111"/><rect x="240" y="16" width="8" height="8" fill="#111"/><rect x="16" y="24" width="8" height="8" fill="#111"/><rect x="64" y="24" width="8" height="8" fill="#111"/><rect x="72" y="24" width="8" height="8" fill="#111"/><rect x="80" y="24" width="8" height="8" fill="#111"/><rect x="96" y="24" width="8" height="8" fill="#111"/><rect x="112" y="24" width="8" height="8" fill="#111"/><rect x="128" y="24" width="8" height="8" fill="#111"/><rect x="144" y="24" width="8" height="8" fill="#111"/><rect x="152" y="24" width="8" height="8" fill="#111"/><rect x="160" y="24" width="8" height="8" fill="#111"/><rect x="176" y="24" width="8" height="8" fill="#111"/><rect x="192" y="24" width="8" height="8" fill="#111"/><rect x="240" y="24" width="8" height="8" fill="#111"/><rect x="16" y="32" width="8" height="8" fill="#111"/><rect x="32" y="32" width="8" height="8" fill="#111"/><rect x="40" y="32" width="8" height="8" fill="#111"/><rect x="48" y="32" width="8" height="8" fill="#111"/><rect x="64" y="32" width="8" height="8" fill="#111"/><rect x="72" y="32" width="8" height="8" fill="#111"/><rect x="80" y="32" width="8" height="8" fill="#111"/><rect x="88" y="32" width="8" height="8" fill="#111"/><rect x="96" y="32" width="8" height="8" fill="#111"/><rect x="120" y="32" width="8" height="8" fill="#111"/><rect x="128" y="32" width="8" height="8" fill="#111"/><rect x="136" y="32" width="8" height="8" fill="#111"/><rect x="176" y="32" width="8" height="8" fill="#111"/><rect x="184" y="32" width="8" height="8" fill="#111"/><rect x="192" y="32" width="8" height="8" fill="#111"/><rect x="208" y="32" width="8" height="8" fill="#111"/><rect x="216" y="32" width="8" height="8" fill="#111"/><rect x="224" y="32" width="8" height="8" fill="#111"/><rect x="240" y="32" width="8" height="8" fill="#111"/><rect x="16" y="40" width="8" height="8" fill="#111"/><rect x="32" y="40" width="8" height="8" fill="#111"/><rect x="40" y="40" width="8" height="8" fill="#111"/><rect x="48" y="40" width="8" height="8" fill="#111"/><rect x="64" y="40" width="8" height="8" fill="#111"/><rect x="72" y="40" width="8" height="8" fill="#111"/><rect x="80" y="40" width="8" height="8" fill="#111"/><rect x="88" y="40" width="8" height="8" fill="#111"/><rect x="96" y="40" width="8" height="8" fill="#111"/><rect x="136" y="40" width="8" height="8" fill="#111"/><rect x="152" y="40" width="8" height="8" fill="#111"/><rect x="160" y="40" width="8" height="8" fill="#111"/><rect x="176" y="40" width="8" height="8" fill="#111"/><rect x="184" y="40" width="8" height="8" fill="#111"/><rect x="192" y="40" width="8" height="8" fill="#111"/><rect x="208" y="40" width="8" height="8" fill="#111"/><rect x="216" y="40" width="8" height="8" fill="#111"/><rect x="224" y="40" width="8" height="8" fill="#111"/><rect x="240" y="40" width="8" height="8" fill="#111"/><rect x="16" y="48" width="8" height="8" fill="#111"/><rect x="32" y="48" width="8" height="8" fill="#111"/><rect x="40" y="48" width="8" height="8" fill="#111"/><rect x="48" y="48" width="8" height="8" fill="#111"/><rect x="64" y="48" width="8" height="8" fill="#111"/><rect x="72" y="48" width="8" height="8" fill="#111"/><rect x="80" y="48" width="8" height="8" fill="#111"/><rect x="96" y="48" width="8" height="8" fill="#111"/><rect x="112" y="48" width="8" height="8" fill="#111"/><rect x="120" y="48" width="8" height="8" fill="#111"/><rect x="128" y="48" width="8" height="8" fill="#111"/><rect x="160" y="48" width="8" height="8" fill="#111"/><rect x="168" y="48" width="8" height="8" fill="#111"/><rect x="176" y="48" width="8" height="8" fill="#111"/><rect x="184" y="48" width="8" height="8" fill="#111"/><rect x="192" y="48" width="8" height="8" fill="#111"/><rect x="208" y="48" width="8" height="8" fill="#111"/><rect x="216" y="48" width="8" height="8" fill="#111"/><rect x="224" y="48" width="8" height="8" fill="#111"/><rect x="240" y="48" width="8" height="8" fill="#111"/><rect x="16" y="56" width="8" height="8" fill="#111"/><rect x="64" y="56" width="8" height="8" fill="#111"/><rect x="72" y="56" width="8" height="8" fill="#111"/><rect x="112" y="56" width="8" height="8" fill="#111"/><rect x="120" y="56" width="8" height="8" fill="#111"/><rect x="152" y="56" width="8" height="8" fill="#111"/><rect x="160" y="56" width="8" height="8" fill="#111"/><rect x="192" y="56" width="8" height="8" fill="#111"/><rect x="240" y="56" width="8" height="8" fill="#111"/><rect x="16" y="64" width="8" height="8" fill="#111"/><rect x="24" y="64" width="8" height="8" fill="#111"/><rect x="32" y="64" width="8" height="8" fill="#111"/><rect x="40" y="64" width="8" height="8" fill="#111"/><rect x="48" y="64" width="8" height="8" fill="#111"/><rect x="56" y="64" width="8" height="8" fill="#111"/><rect x="64" y="64" width="8" height="8" fill="#111"/><rect x="72" y="64" width="8" height="8" fill="#111"/><rect x="88" y="64" width="8" height="8" fill="#111"/><rect x="128" y="64" width="8" height="8" fill="#111"/><rect x="160" y="64" width="8" height="8" fill="#111"/><rect x="176" y="64" width="8" height="8" fill="#111"/><rect x="184" y="64" width="8" height="8" fill="#111"/><rect x="192" y="64" width="8" height="8" fill="#111"/><rect x="200" y="64" width="8" height="8" fill="#111"/><rect x="208" y="64" width="8" height="8" fill="#111"/><rect x="216" y="64" width="8" height="8" fill="#111"/><rect x="224" y="64" width="8" height="8" fill="#111"/><rect x="232" y="64" width="8" height="8" fill="#111"/><rect x="240" y="64" width="8" height="8" fill="#111"/><rect x="16" y="72" width="8" height="8" fill="#111"/><rect x="32" y="72" width="8" height="8" fill="#111"/><rect x="40" y="72" width="8" height="8" fill="#111"/><rect x="48" y="72" width="8" height="8" fill="#111"/><rect x="56" y="72" width="8" height="8" fill="#111"/><rect x="80" y="72" width="8" height="8" fill="#111"/><rect x="96" y="72" width="8" height="8" fill="#111"/><rect x="112" y="72" width="8" height="8" fill="#111"/><rect x="120" y="72" width="8" height="8" fill="#111"/><rect x="136" y="72" width="8" height="8" fill="#111"/><rect x="144" y="72" width="8" height="8" fill="#111"/><rect x="152" y="72" width="8" height="8" fill="#111"/><rect x="176" y="72" width="8" height="8" fill="#111"/><rect x="184" y="72" width="8" height="8" fill="#111"/><rect x="192" y="72" width="8" height="8" fill="#111"/><rect x="208" y="72" width="8" height="8" fill="#111"/><rect x="216" y="72" width="8" height="8" fill="#111"/><rect x="232" y="72" width="8" height="8" fill="#111"/><rect x="240" y="72" width="8" height="8" fill="#111"/><rect x="16" y="80" width="8" height="8" fill="#111"/><rect x="24" y="80" width="8" height="8" fill="#111"/><rect x="32" y="80" width="8" height="8" fill="#111"/><rect x="48" y="80" width="8" height="8" fill="#111"/><rect x="56" y="80" width="8" height="8" fill="#111"/><rect x="64" y="80" width="8" height="8" fill="#111"/><rect x="88" y="80" width="8" height="8" fill="#111"/><rect x="96" y="80" width="8" height="8" fill="#111"/><rect x="104" y="80" width="8" height="8" fill="#111"/><rect x="144" y="80" width="8" height="8" fill="#111"/><rect x="152" y="80" width="8" height="8" fill="#111"/><rect x="168" y="80" width="8" height="8" fill="#111"/><rect x="184" y="80" width="8" height="8" fill="#111"/><rect x="192" y="80" width="8" height="8" fill="#111"/><rect x="200" y="80" width="8" height="8" fill="#111"/><rect x="208" y="80" width="8" height="8" fill="#111"/><rect x="240" y="80" width="8" height="8" fill="#111"/><rect x="16" y="88" width="8" height="8" fill="#111"/><rect x="32" y="88" width="8" height="8" fill="#111"/><rect x="56" y="88" width="8" height="8" fill="#111"/><rect x="64" y="88" width="8" height="8" fill="#111"/><rect x="72" y="88" width="8" height="8" fill="#111"/><rect x="88" y="88" width="8" height="8" fill="#111"/><rect x="104" y="88" width="8" height="8" fill="#111"/><rect x="120" y="88" width="8" height="8" fill="#111"/><rect x="128" y="88" width="8" height="8" fill="#111"/><rect x="136" y="88" width="8" height="8" fill="#111"/><rect x="152" y="88" width="8" height="8" fill="#111"/><rect x="160" y="88" width="8" height="8" fill="#111"/><rect x="168" y="88" width="8" height="8" fill="#111"/><rect x="184" y="88" width="8" height="8" fill="#111"/><rect x="192" y="88" width="8" height="8" fill="#111"/><rect x="224" y="88" width="8" height="8" fill="#111"/><rect x="24" y="96" width="8" height="8" fill="#111"/><rect x="32" y="96" width="8" height="8" fill="#111"/><rect x="40" y="96" width="8" height="8" fill="#111"/><rect x="56" y="96" width="8" height="8" fill="#111"/><rect x="64" y="96" width="8" height="8" fill="#111"/><rect x="80" y="96" width="8" height="8" fill="#111"/><rect x="88" y="96" width="8" height="8" fill="#111"/><rect x="136" y="96" width="8" height="8" fill="#111"/><rect x="144" y="96" width="8" height="8" fill="#111"/><rect x="168" y="96" width="8" height="8" fill="#111"/><rect x="176" y="96" width="8" height="8" fill="#111"/><rect x="224" y="96" width="8" height="8" fill="#111"/><rect x="232" y="96" width="8" height="8" fill="#111"/><rect x="48" y="104" width="8" height="8" fill="#111"/><rect x="72" y="104" width="8" height="8" fill="#111"/><rect x="104" y="104" width="8" height="8" fill="#111"/><rect x="112" y="104" width="8" height="8" fill="#111"/><rect x="120" y="104" width="8" height="8" fill="#111"/><rect x="128" y="104" width="8" height="8" fill="#111"/><rect x="136" y="104" width="8" height="8" fill="#111"/><rect x="152" y="104" width="8" height="8" fill="#111"/><rect x="176" y="104" width="8" height="8" fill="#111"/><rect x="200" y="104" width="8" height="8" fill="#111"/><rect x="208" y="104" width="8" height="8" fill="#111"/><rect x="216" y="104" width="8" height="8" fill="#111"/><rect x="232" y="104" width="8" height="8" fill="#111"/><rect x="240" y="104" width="8" height="8" fill="#111"/><rect x="24" y="112" width="8" height="8" fill="#111"/><rect x="32" y="112" width="8" height="8" fill="#111"/><rect x="48" y="112" width="8" height="8" fill="#111"/><rect x="64" y="112" width="8" height="8" fill="#111"/><rect x="88" y="112" width="8" height="8" fill="#111"/><rect x="96" y="112" width="8" height="8" fill="#111"/><rect x="120" y="112" width="8" height="8" fill="#111"/><rect x="152" y="112" width="8" height="8" fill="#111"/><rect x="168" y="112" width="8" height="8" fill="#111"/><rect x="176" y="112" width="8" height="8" fill="#111"/><rect x="184" y="112" width="8" height="8" fill="#111"/><rect x="232" y="112" width="8" height="8" fill="#111"/><rect x="240" y="112" width="8" height="8" fill="#111"/><rect x="24" y="120" width="8" height="8" fill="#111"/><rect x="40" y="120" width="8" height="8" fill="#111"/><rect x="48" y="120" width="8" height="8" fill="#111"/><rect x="56" y="120" width="8" height="8" fill="#111"/><rect x="80" y="120" width="8" height="8" fill="#111"/><rect x="96" y="120" width="8" height="8" fill="#111"/><rect x="104" y="120" width="8" height="8" fill="#111"/><rect x="112" y="120" width="8" height="8" fill="#111"/><rect x="120" y="120" width="8" height="8" fill="#111"/><rect x="136" y="120" width="8" height="8" fill="#111"/><rect x="152" y="120" width="8" height="8" fill="#111"/><rect x="184" y="120" width="8" height="8" fill="#111"/><rect x="208" y="120" width="8" height="8" fill="#111"/><rect x="216" y="120" width="8" height="8" fill="#111"/><rect x="232" y="120" width="8" height="8" fill="#111"/><rect x="16" y="128" width="8" height="8" fill="#111"/><rect x="24" y="128" width="8" height="8" fill="#111"/><rect x="32" y="128" width="8" height="8" fill="#111"/><rect x="40" y="128" width="8" height="8" fill="#111"/><rect x="64" y="128" width="8" height="8" fill="#111"/><rect x="80" y="128" width="8" height="8" fill="#111"/><rect x="96" y="128" width="8" height="8" fill="#111"/><rect x="112" y="128" width="8" height="8" fill="#111"/><rect x="152" y="128" width="8" height="8" fill="#111"/><rect x="160" y="128" width="8" height="8" fill="#111"/><rect x="168" y="128" width="8" height="8" fill="#111"/><rect x="176" y="128" width="8" height="8" fill="#111"/><rect x="216" y="128" width="8" height="8" fill="#111"/><rect x="232" y="128" width="8" height="8" fill="#111"/><rect x="72" y="136" width="8" height="8" fill="#111"/><rect x="88" y="136" width="8" height="8" fill="#111"/><rect x="120" y="136" width="8" height="8" fill="#111"/><rect x="136" y="136" width="8" height="8" fill="#111"/><rect x="144" y="136" width="8" height="8" fill="#111"/><rect x="168" y="136" width="8" height="8" fill="#111"/><rect x="192" y="136" width="8" height="8" fill="#111"/><rect x="208" y="136" width="8" height="8" fill="#111"/><rect x="216" y="136" width="8" height="8" fill="#111"/><rect x="224" y="136" width="8" height="8" fill="#111"/><rect x="240" y="136" width="8" height="8" fill="#111"/><rect x="16" y="144" width="8" height="8" fill="#111"/><rect x="24" y="144" width="8" height="8" fill="#111"/><rect x="40" y="144" width="8" height="8" fill="#111"/><rect x="64" y="144" width="8" height="8" fill="#111"/><rect x="104" y="144" width="8" height="8" fill="#111"/><rect x="112" y="144" width="8" height="8" fill="#111"/><rect x="128" y="144" width="8" height="8" fill="#111"/><rect x="152" y="144" width="8" height="8" fill="#111"/><rect x="192" y="144" width="8" height="8" fill="#111"/><rect x="200" y="144" width="8" height="8" fill="#111"/><rect x="216" y="144" width="8" height="8" fill="#111"/><rect x="224" y="144" width="8" height="8" fill="#111"/><rect x="240" y="144" width="8" height="8" fill="#111"/><rect x="48" y="152" width="8" height="8" fill="#111"/><rect x="64" y="152" width="8" height="8" fill="#111"/><rect x="72" y="152" width="8" height="8" fill="#111"/><rect x="120" y="152" width="8" height="8" fill="#111"/><rect x="128" y="152" width="8" height="8" fill="#111"/><rect x="144" y="152" width="8" height="8" fill="#111"/><rect x="160" y="152" width="8" height="8" fill="#111"/><rect x="168" y="152" width="8" height="8" fill="#111"/><rect x="176" y="152" width="8" height="8" fill="#111"/><rect x="200" y="152" width="8" height="8" fill="#111"/><rect x="40" y="160" width="8" height="8" fill="#111"/><rect x="64" y="160" width="8" height="8" fill="#111"/><rect x="88" y="160" width="8" height="8" fill="#111"/><rect x="104" y="160" width="8" height="8" fill="#111"/><rect x="128" y="160" width="8" height="8" fill="#111"/><rect x="144" y="160" width="8" height="8" fill="#111"/><rect x="152" y="160" width="8" height="8" fill="#111"/><rect x="160" y="160" width="8" height="8" fill="#111"/><rect x="168" y="160" width="8" height="8" fill="#111"/><rect x="192" y="160" width="8" height="8" fill="#111"/><rect x="200" y="160" width="8" height="8" fill="#111"/><rect x="216" y="160" width="8" height="8" fill="#111"/><rect x="224" y="160" width="8" height="8" fill="#111"/><rect x="232" y="160" width="8" height="8" fill="#111"/><rect x="240" y="160" width="8" height="8" fill="#111"/><rect x="24" y="168" width="8" height="8" fill="#111"/><rect x="40" y="168" width="8" height="8" fill="#111"/><rect x="96" y="168" width="8" height="8" fill="#111"/><rect x="112" y="168" width="8" height="8" fill="#111"/><rect x="120" y="168" width="8" height="8" fill="#111"/><rect x="128" y="168" width="8" height="8" fill="#111"/><rect x="152" y="168" width="8" height="8" fill="#111"/><rect x="160" y="168" width="8" height="8" fill="#111"/><rect x="168" y="168" width="8" height="8" fill="#111"/><rect x="176" y="168" width="8" height="8" fill="#111"/><rect x="184" y="168" width="8" height="8" fill="#111"/><rect x="192" y="168" width="8" height="8" fill="#111"/><rect x="208" y="168" width="8" height="8" fill="#111"/><rect x="232" y="168" width="8" height="8" fill="#111"/><rect x="240" y="168" width="8" height="8" fill="#111"/><rect x="16" y="176" width="8" height="8" fill="#111"/><rect x="32" y="176" width="8" height="8" fill="#111"/><rect x="56" y="176" width="8" height="8" fill="#111"/><rect x="64" y="176" width="8" height="8" fill="#111"/><rect x="72" y="176" width="8" height="8" fill="#111"/><rect x="88" y="176" width="8" height="8" fill="#111"/><rect x="96" y="176" width="8" height="8" fill="#111"/><rect x="104" y="176" width="8" height="8" fill="#111"/><rect x="112" y="176" width="8" height="8" fill="#111"/><rect x="120" y="176" width="8" height="8" fill="#111"/><rect x="128" y="176" width="8" height="8" fill="#111"/><rect x="136" y="176" width="8" height="8" fill="#111"/><rect x="168" y="176" width="8" height="8" fill="#111"/><rect x="192" y="176" width="8" height="8" fill="#111"/><rect x="200" y="176" width="8" height="8" fill="#111"/><rect x="240" y="176" width="8" height="8" fill="#111"/><rect x="32" y="184" width="8" height="8" fill="#111"/><rect x="48" y="184" width="8" height="8" fill="#111"/><rect x="56" y="184" width="8" height="8" fill="#111"/><rect x="64" y="184" width="8" height="8" fill="#111"/><rect x="72" y="184" width="8" height="8" fill="#111"/><rect x="96" y="184" width="8" height="8" fill="#111"/><rect x="104" y="184" width="8" height="8" fill="#111"/><rect x="120" y="184" width="8" height="8" fill="#111"/><rect x="128" y="184" width="8" height="8" fill="#111"/><rect x="136" y="184" width="8" height="8" fill="#111"/><rect x="152" y="184" width="8" height="8" fill="#111"/><rect x="160" y="184" width="8" height="8" fill="#111"/><rect x="168" y="184" width="8" height="8" fill="#111"/><rect x="176" y="184" width="8" height="8" fill="#111"/><rect x="184" y="184" width="8" height="8" fill="#111"/><rect x="192" y="184" width="8" height="8" fill="#111"/><rect x="224" y="184" width="8" height="8" fill="#111"/><rect x="232" y="184" width="8" height="8" fill="#111"/><rect x="240" y="184" width="8" height="8" fill="#111"/><rect x="16" y="192" width="8" height="8" fill="#111"/><rect x="24" y="192" width="8" height="8" fill="#111"/><rect x="32" y="192" width="8" height="8" fill="#111"/><rect x="40" y="192" width="8" height="8" fill="#111"/><rect x="48" y="192" width="8" height="8" fill="#111"/><rect x="56" y="192" width="8" height="8" fill="#111"/><rect x="64" y="192" width="8" height="8" fill="#111"/><rect x="80" y="192" width="8" height="8" fill="#111"/><rect x="88" y="192" width="8" height="8" fill="#111"/><rect x="96" y="192" width="8" height="8" fill="#111"/><rect x="112" y="192" width="8" height="8" fill="#111"/><rect x="160" y="192" width="8" height="8" fill="#111"/><rect x="168" y="192" width="8" height="8" fill="#111"/><rect x="176" y="192" width="8" height="8" fill="#111"/><rect x="184" y="192" width="8" height="8" fill="#111"/><rect x="216" y="192" width="8" height="8" fill="#111"/><rect x="16" y="200" width="8" height="8" fill="#111"/><rect x="64" y="200" width="8" height="8" fill="#111"/><rect x="80" y="200" width="8" height="8" fill="#111"/><rect x="104" y="200" width="8" height="8" fill="#111"/><rect x="112" y="200" width="8" height="8" fill="#111"/><rect x="128" y="200" width="8" height="8" fill="#111"/><rect x="184" y="200" width="8" height="8" fill="#111"/><rect x="200" y="200" width="8" height="8" fill="#111"/><rect x="208" y="200" width="8" height="8" fill="#111"/><rect x="224" y="200" width="8" height="8" fill="#111"/><rect x="240" y="200" width="8" height="8" fill="#111"/><rect x="16" y="208" width="8" height="8" fill="#111"/><rect x="32" y="208" width="8" height="8" fill="#111"/><rect x="40" y="208" width="8" height="8" fill="#111"/><rect x="48" y="208" width="8" height="8" fill="#111"/><rect x="64" y="208" width="8" height="8" fill="#111"/><rect x="72" y="208" width="8" height="8" fill="#111"/><rect x="80" y="208" width="8" height="8" fill="#111"/><rect x="88" y="208" width="8" height="8" fill="#111"/><rect x="112" y="208" width="8" height="8" fill="#111"/><rect x="144" y="208" width="8" height="8" fill="#111"/><rect x="152" y="208" width="8" height="8" fill="#111"/><rect x="160" y="208" width="8" height="8" fill="#111"/><rect x="176" y="208" width="8" height="8" fill="#111"/><rect x="200" y="208" width="8" height="8" fill="#111"/><rect x="216" y="208" width="8" height="8" fill="#111"/><rect x="224" y="208" width="8" height="8" fill="#111"/><rect x="240" y="208" width="8" height="8" fill="#111"/><rect x="16" y="216" width="8" height="8" fill="#111"/><rect x="32" y="216" width="8" height="8" fill="#111"/><rect x="40" y="216" width="8" height="8" fill="#111"/><rect x="48" y="216" width="8" height="8" fill="#111"/><rect x="64" y="216" width="8" height="8" fill="#111"/><rect x="72" y="216" width="8" height="8" fill="#111"/><rect x="88" y="216" width="8" height="8" fill="#111"/><rect x="128" y="216" width="8" height="8" fill="#111"/><rect x="136" y="216" width="8" height="8" fill="#111"/><rect x="144" y="216" width="8" height="8" fill="#111"/><rect x="152" y="216" width="8" height="8" fill="#111"/><rect x="160" y="216" width="8" height="8" fill="#111"/><rect x="168" y="216" width="8" height="8" fill="#111"/><rect x="176" y="216" width="8" height="8" fill="#111"/><rect x="208" y="216" width="8" height="8" fill="#111"/><rect x="232" y="216" width="8" height="8" fill="#111"/><rect x="16" y="224" width="8" height="8" fill="#111"/><rect x="32" y="224" width="8" height="8" fill="#111"/><rect x="40" y="224" width="8" height="8" fill="#111"/><rect x="48" y="224" width="8" height="8" fill="#111"/><rect x="64" y="224" width="8" height="8" fill="#111"/><rect x="72" y="224" width="8" height="8" fill="#111"/><rect x="80" y="224" width="8" height="8" fill="#111"/><rect x="96" y="224" width="8" height="8" fill="#111"/><rect x="120" y="224" width="8" height="8" fill="#111"/><rect x="128" y="224" width="8" height="8" fill="#111"/><rect x="168" y="224" width="8" height="8" fill="#111"/><rect x="176" y="224" width="8" height="8" fill="#111"/><rect x="184" y="224" width="8" height="8" fill="#111"/><rect x="192" y="224" width="8" height="8" fill="#111"/><rect x="200" y="224" width="8" height="8" fill="#111"/><rect x="232" y="224" width="8" height="8" fill="#111"/><rect x="240" y="224" width="8" height="8" fill="#111"/><rect x="16" y="232" width="8" height="8" fill="#111"/><rect x="64" y="232" width="8" height="8" fill="#111"/><rect x="72" y="232" width="8" height="8" fill="#111"/><rect x="80" y="232" width="8" height="8" fill="#111"/><rect x="96" y="232" width="8" height="8" fill="#111"/><rect x="112" y="232" width="8" height="8" fill="#111"/><rect x="120" y="232" width="8" height="8" fill="#111"/><rect x="136" y="232" width="8" height="8" fill="#111"/><rect x="152" y="232" width="8" height="8" fill="#111"/><rect x="160" y="232" width="8" height="8" fill="#111"/><rect x="176" y="232" width="8" height="8" fill="#111"/><rect x="184" y="232" width="8" height="8" fill="#111"/><rect x="192" y="232" width="8" height="8" fill="#111"/><rect x="200" y="232" width="8" height="8" fill="#111"/><rect x="216" y="232" width="8" height="8" fill="#111"/><rect x="224" y="232" width="8" height="8" fill="#111"/><rect x="232" y="232" width="8" height="8" fill="#111"/><rect x="16" y="240" width="8" height="8" fill="#111"/><rect x="24" y="240" width="8" height="8" fill="#111"/><rect x="32" y="240" width="8" height="8" fill="#111"/><rect x="40" y="240" width="8" height="8" fill="#111"/><rect x="48" y="240" width="8" height="8" fill="#111"/><rect x="56" y="240" width="8" height="8" fill="#111"/><rect x="64" y="240" width="8" height="8" fill="#111"/><rect x="88" y="240" width="8" height="8" fill="#111"/><rect x="112" y="240" width="8" height="8" fill="#111"/><rect x="120" y="240" width="8" height="8" fill="#111"/><rect x="136" y="240" width="8" height="8" fill="#111"/><rect x="152" y="240" width="8" height="8" fill="#111"/><rect x="160" y="240" width="8" height="8" fill="#111"/><rect x="168" y="240" width="8" height="8" fill="#111"/><rect x="192" y="240" width="8" height="8" fill="#111"/><rect x="200" y="240" width="8" height="8" fill="#111"/><rect x="208" y="240" width="8" height="8" fill="#111"/><rect x="216" y="240" width="8" height="8" fill="#111"/><rect x="224" y="240" width="8" height="8" fill="#111"/>
</svg>